# xmcd
#
# Track frame offsets:
#	150
#	16813
#	33055
#	50781
#	62339
#	75931
#	90113
#	101563
#	112840
#	126025
#	137262
#	152402
#	167160
#	188572
#	209074
#	227556
#	241515
#	252524
#	265356
#	278197
#
# Disc length: 3917 seconds
#
# Revision: 0
# Processed by: cddbd v1.5.2PL0 Copyright (c) Steve Scherf et al.
# Submitted via: dBpowerAMP V4.0
#
DISCID=ee0f4b14
DTITLE=Various Artist - BIG COUNTRY
DYEAR=2004
DGENRE=Country
TTITLE0=Big Ol' Truck
TTITLE1=Pickup Man
TTITLE2=Brothers of The Road
TTITLE3=Guitar Town
TTITLE4=Right Where I Need to Be
TTITLE5=A Little Gasoline
TTITLE6=On The Road Again
TTITLE7=Rough And Rowdy Days
TTITLE8=Burn me Down
TTITLE9=Heaven's Just a Sin Away
TTITLE10=Third Rate Romance
TTITLE11=Rebels Without a Clue
TTITLE12=Sweet Home Alabama
TTITLE13=The Road Goes on Forever
TTITLE14=Some Gave All
TTITLE15=Bubba Shot The Jukebox
TTITLE16=High-Tech Redneck
TTITLE17=Lifestyles of The Not so Rich and Famous
TTITLE18=Dumas Walker
TTITLE19=Should've Been a Cowboy
EXTD=
EXTT0=
EXTT1=
EXTT2=
EXTT3=
EXTT4=
EXTT5=
EXTT6=
EXTT7=
EXTT8=
EXTT9=
EXTT10=
EXTT11=
EXTT12=
EXTT13=
EXTT14=
EXTT15=
EXTT16=
EXTT17=
EXTT18=
EXTT19=
PLAYORDER=
